<mxfile host="Electron" modified="2025-03-06T10:07:20.949Z" agent="Mozilla/5.0 (Windows NT 10.0; Win64; x64) AppleWebKit/537.36 (KHTML, like Gecko) draw.io/24.5.3 Chrome/124.0.6367.207 Electron/30.0.6 Safari/537.36" etag="tlYs30GZnJcqZfn0g2DH" version="24.5.3" type="device">
  <diagram name="Seite-1" id="tQ0ftKxHk6KphrgHs4fO">
    <mxGraphModel dx="1413" dy="1355" grid="1" gridSize="10" guides="1" tooltips="1" connect="1" arrows="1" fold="1" page="1" pageScale="1" pageWidth="827" pageHeight="1169" math="0" shadow="0">
      <root>
        <mxCell id="0" />
        <mxCell id="1" parent="0" />
        <mxCell id="mLHIJTyr5hpvtW-Wlfsm-9" value="Concept" style="text;html=1;align=center;verticalAlign=middle;whiteSpace=wrap;rounded=0;fillColor=#dae8fc;strokeColor=#6c8ebf;" parent="1" vertex="1">
          <mxGeometry x="160" y="570" width="100" height="30" as="geometry" />
        </mxCell>
        <mxCell id="m0PQreRef5mGNc5vd1aa-3" value="Production" style="text;html=1;align=center;verticalAlign=middle;whiteSpace=wrap;rounded=0;fillColor=#dae8fc;strokeColor=#6c8ebf;" vertex="1" parent="1">
          <mxGeometry x="300" y="570" width="100" height="30" as="geometry" />
        </mxCell>
        <mxCell id="m0PQreRef5mGNc5vd1aa-4" value="" style="endArrow=blockThin;startArrow=blockThin;html=1;rounded=0;startFill=1;endFill=1;edgeStyle=orthogonalEdgeStyle;exitX=1;exitY=0.5;exitDx=0;exitDy=0;entryX=0;entryY=0.5;entryDx=0;entryDy=0;" edge="1" parent="1" source="mLHIJTyr5hpvtW-Wlfsm-9" target="m0PQreRef5mGNc5vd1aa-3">
          <mxGeometry width="50" height="50" relative="1" as="geometry">
            <mxPoint x="270" y="570" as="sourcePoint" />
            <mxPoint x="320" y="520" as="targetPoint" />
          </mxGeometry>
        </mxCell>
        <mxCell id="m0PQreRef5mGNc5vd1aa-5" value="Utilization" style="text;html=1;align=center;verticalAlign=middle;whiteSpace=wrap;rounded=0;fillColor=#dae8fc;strokeColor=#6c8ebf;" vertex="1" parent="1">
          <mxGeometry x="440" y="570" width="100" height="30" as="geometry" />
        </mxCell>
        <mxCell id="m0PQreRef5mGNc5vd1aa-6" value="Retirement" style="text;html=1;align=center;verticalAlign=middle;whiteSpace=wrap;rounded=0;fillColor=#dae8fc;strokeColor=#6c8ebf;" vertex="1" parent="1">
          <mxGeometry x="580" y="570" width="100" height="30" as="geometry" />
        </mxCell>
        <mxCell id="m0PQreRef5mGNc5vd1aa-7" value="Support" style="text;html=1;align=center;verticalAlign=middle;whiteSpace=wrap;rounded=0;fillColor=#dae8fc;strokeColor=#6c8ebf;" vertex="1" parent="1">
          <mxGeometry x="440" y="640" width="100" height="30" as="geometry" />
        </mxCell>
        <mxCell id="m0PQreRef5mGNc5vd1aa-8" value="Development" style="text;html=1;align=center;verticalAlign=middle;whiteSpace=wrap;rounded=0;fillColor=#dae8fc;strokeColor=#6c8ebf;" vertex="1" parent="1">
          <mxGeometry x="270" y="500" width="100" height="30" as="geometry" />
        </mxCell>
        <mxCell id="m0PQreRef5mGNc5vd1aa-9" value="" style="endArrow=blockThin;startArrow=blockThin;html=1;rounded=0;startFill=1;endFill=1;edgeStyle=orthogonalEdgeStyle;exitX=1;exitY=0.5;exitDx=0;exitDy=0;entryX=0;entryY=0.5;entryDx=0;entryDy=0;" edge="1" parent="1" source="m0PQreRef5mGNc5vd1aa-3" target="m0PQreRef5mGNc5vd1aa-5">
          <mxGeometry width="50" height="50" relative="1" as="geometry">
            <mxPoint x="270" y="595" as="sourcePoint" />
            <mxPoint x="310" y="595" as="targetPoint" />
          </mxGeometry>
        </mxCell>
        <mxCell id="m0PQreRef5mGNc5vd1aa-10" value="" style="endArrow=blockThin;startArrow=blockThin;html=1;rounded=0;startFill=1;endFill=1;edgeStyle=orthogonalEdgeStyle;exitX=1;exitY=0.5;exitDx=0;exitDy=0;entryX=0;entryY=0.5;entryDx=0;entryDy=0;" edge="1" parent="1" source="m0PQreRef5mGNc5vd1aa-5" target="m0PQreRef5mGNc5vd1aa-6">
          <mxGeometry width="50" height="50" relative="1" as="geometry">
            <mxPoint x="410" y="595" as="sourcePoint" />
            <mxPoint x="450" y="595" as="targetPoint" />
          </mxGeometry>
        </mxCell>
        <mxCell id="m0PQreRef5mGNc5vd1aa-11" value="" style="endArrow=blockThin;startArrow=blockThin;html=1;rounded=0;startFill=1;endFill=1;edgeStyle=orthogonalEdgeStyle;exitX=0.5;exitY=0;exitDx=0;exitDy=0;entryX=0.5;entryY=1;entryDx=0;entryDy=0;" edge="1" parent="1" source="m0PQreRef5mGNc5vd1aa-7" target="m0PQreRef5mGNc5vd1aa-5">
          <mxGeometry width="50" height="50" relative="1" as="geometry">
            <mxPoint x="550" y="595" as="sourcePoint" />
            <mxPoint x="590" y="595" as="targetPoint" />
          </mxGeometry>
        </mxCell>
        <mxCell id="m0PQreRef5mGNc5vd1aa-12" value="" style="endArrow=blockThin;startArrow=blockThin;html=1;rounded=0;startFill=1;endFill=1;edgeStyle=orthogonalEdgeStyle;entryX=0.5;entryY=1;entryDx=0;entryDy=0;" edge="1" parent="1" source="m0PQreRef5mGNc5vd1aa-7" target="mLHIJTyr5hpvtW-Wlfsm-9">
          <mxGeometry width="50" height="50" relative="1" as="geometry">
            <mxPoint x="500" y="650" as="sourcePoint" />
            <mxPoint x="500" y="610" as="targetPoint" />
          </mxGeometry>
        </mxCell>
        <mxCell id="m0PQreRef5mGNc5vd1aa-13" value="" style="endArrow=blockThin;startArrow=blockThin;html=1;rounded=0;startFill=1;endFill=1;entryX=1;entryY=1;entryDx=0;entryDy=0;exitX=0;exitY=0;exitDx=0;exitDy=0;" edge="1" parent="1" source="m0PQreRef5mGNc5vd1aa-5" target="m0PQreRef5mGNc5vd1aa-8">
          <mxGeometry width="50" height="50" relative="1" as="geometry">
            <mxPoint x="450" y="665" as="sourcePoint" />
            <mxPoint x="220" y="610" as="targetPoint" />
          </mxGeometry>
        </mxCell>
        <mxCell id="m0PQreRef5mGNc5vd1aa-14" value="" style="endArrow=blockThin;startArrow=blockThin;html=1;rounded=0;startFill=1;endFill=1;exitX=0.5;exitY=0;exitDx=0;exitDy=0;entryX=0.75;entryY=1;entryDx=0;entryDy=0;" edge="1" parent="1" source="m0PQreRef5mGNc5vd1aa-3" target="m0PQreRef5mGNc5vd1aa-8">
          <mxGeometry width="50" height="50" relative="1" as="geometry">
            <mxPoint x="450" y="580" as="sourcePoint" />
            <mxPoint x="330" y="540" as="targetPoint" />
          </mxGeometry>
        </mxCell>
        <mxCell id="m0PQreRef5mGNc5vd1aa-15" value="" style="endArrow=blockThin;startArrow=blockThin;html=1;rounded=0;startFill=1;endFill=1;entryX=0.25;entryY=1;entryDx=0;entryDy=0;exitX=0.819;exitY=-0.102;exitDx=0;exitDy=0;exitPerimeter=0;" edge="1" parent="1" source="mLHIJTyr5hpvtW-Wlfsm-9" target="m0PQreRef5mGNc5vd1aa-8">
          <mxGeometry width="50" height="50" relative="1" as="geometry">
            <mxPoint x="360" y="580" as="sourcePoint" />
            <mxPoint x="351" y="538" as="targetPoint" />
          </mxGeometry>
        </mxCell>
      </root>
    </mxGraphModel>
  </diagram>
</mxfile>
